<svg width="168" height="48" viewBox="0 0 168 48" fill="none" xmlns="http://www.w3.org/2000/svg">
<g clip-path="url(#clip0_10_6472)">
<path d="M78.5374 10.299H86.8726L89.9635 19.9089C90.5358 21.642 90.822 23.3182 90.822 23.3182H90.9079C90.9079 23.3182 91.2227 21.642 91.7664 19.8805L94.7714 10.299H103.107V32.0545H97.4044V15.9314H97.3185C97.3185 15.9314 96.7461 18.4031 95.9162 21.1661L92.5964 32.0545H88.554L85.1197 21.1661C84.2325 18.3818 83.7746 15.9598 83.7746 15.9598H83.6888V32.0545H78.5302V10.299H78.5374Z" fill="#480A86"/>
<path d="M106.663 10.299H121.33V14.5108H112.479V19.2057H121.044V23.304H112.479V27.9136H121.645V32.0687H106.663V10.299Z" fill="#480A86"/>
<path d="M124.8 10.299H139.467V14.5108H130.617V19.2057H139.181V23.304H130.617V27.9136H139.782V32.0687H124.8V10.299Z" fill="#480A86"/>
<path d="M142.93 10.299H151.265L154.356 19.9089C154.928 21.642 155.215 23.3182 155.215 23.3182H155.3C155.3 23.3182 155.615 21.642 156.159 19.8805L159.164 10.299H167.499V32.0545H161.797V15.9314H161.711C161.711 15.9314 161.139 18.4031 160.309 21.1661L156.989 32.0545H152.946L149.512 21.1661C148.625 18.3818 148.167 15.9598 148.167 15.9598H148.081V32.0545H142.923V10.299H142.93Z" fill="#480A86"/>
<path d="M77.9507 37.0122H80.648C83.0448 37.0122 84.8908 38.1699 84.8908 41.2596C84.8908 44.3493 83.1736 45.7201 80.7768 45.7201H77.9578V37.0122H77.9507ZM80.648 44.811C82.5082 44.811 83.7746 43.8521 83.7746 41.2951C83.7746 38.7382 82.4796 37.9285 80.7124 37.9285H79.0167V44.811H80.648Z" fill="#480A86"/>
<path d="M86.8512 37.0122H92.4533V37.9569H87.9172V40.8619H92.0884V41.7852H87.9172V44.7755H92.5105V45.7201H86.844V37.0122H86.8512Z" fill="#480A86"/>
<path d="M93.7626 37.0122H94.9002L97.1611 43.4188C97.4616 44.3067 97.5403 44.7754 97.5403 44.7754H97.5618C97.5618 44.7754 97.6548 44.3067 97.9481 43.4472L100.195 37.0193H101.275L98.1556 45.7272H96.9179L93.7626 37.0193V37.0122Z" fill="#480A86"/>
<path d="M102.928 37.0122H108.53V37.9569H103.994V40.8619H108.165V41.7852H103.994V44.7755H108.587V45.7201H102.921V37.0122H102.928Z" fill="#480A86"/>
<path d="M110.691 37.0122H111.757V44.7755H116.114V45.7201H110.691V37.0122Z" fill="#480A86"/>
<path d="M120.829 36.8915C122.961 36.8915 124.785 38.2765 124.785 41.3946C124.785 44.5127 122.975 45.8977 120.829 45.8977C118.683 45.8977 116.908 44.4985 116.908 41.3946C116.908 38.2907 118.74 36.8915 120.829 36.8915ZM123.662 41.4088C123.662 39.0223 122.517 37.7367 120.829 37.7367C119.14 37.7367 118.031 38.9513 118.031 41.4088C118.031 43.8663 119.155 45.0525 120.829 45.0525C122.503 45.0525 123.662 43.7527 123.662 41.4088Z" fill="#480A86"/>
<path d="M127.826 42.396V45.7201H126.76V37.0122H129.4C131.096 37.0122 132.412 37.8077 132.412 39.6899C132.412 41.5721 131.103 42.396 129.307 42.396H127.826ZM129.307 41.5437C130.581 41.5437 131.311 40.9258 131.311 39.6899C131.311 38.4541 130.574 37.8716 129.336 37.8716H127.819V41.5508H129.3L129.307 41.5437Z" fill="#480A86"/>
<path d="M134.087 37.0122H135.704L137.929 43.2484C138.201 44.0084 138.315 44.3848 138.315 44.3848H138.337C138.337 44.3848 138.451 44.0084 138.723 43.2484L140.984 37.0122H142.586V45.7201H141.499V38.241H141.463C141.463 38.241 141.327 38.6813 140.991 39.6047L138.78 45.713H137.771L135.618 39.6047C135.31 38.6955 135.146 38.241 135.146 38.241H135.11V45.7201H134.079V37.0122H134.087Z" fill="#480A86"/>
<path d="M144.998 37.0122H150.6V37.9569H146.064V40.8619H150.235V41.7852H146.064V44.7755H150.657V45.7201H144.99V37.0122H144.998Z" fill="#480A86"/>
<path d="M152.76 37.0122H154.127L158.026 43.4899C158.327 43.9657 158.47 44.3422 158.47 44.3422H158.506V37.0122H159.514V45.7201H158.148L154.263 39.2567C153.92 38.6884 153.805 38.4114 153.805 38.4114H153.784V45.7201H152.76V37.0122Z" fill="#480A86"/>
<path d="M168 37.9356H164.959V45.7201H163.893V37.9356H160.852V37.0122H167.993V37.9356H168Z" fill="#480A86"/>
<path d="M54.4689 0H39.7803C31.1016 0 24.047 7.01036 24.047 15.6188V29.2134C24.047 31.053 22.5374 32.5516 20.6771 32.5516H17.5004C17.0068 31.2803 15.769 30.3711 14.3166 30.3711C12.4349 30.3711 10.9038 31.8911 10.9038 33.7591C10.9038 35.6271 12.4349 37.1471 14.3166 37.1471C15.769 37.1471 17.0068 36.2379 17.5004 34.9666H20.6771C23.8753 34.9666 26.4725 32.3883 26.4725 29.2134V15.6188C26.4725 8.33146 32.4395 2.40781 39.7803 2.40781H54.4689C61.8096 2.40781 67.7767 8.33146 67.7767 15.6188V43.4046H39.7874C38.0273 43.4046 36.2887 43.0565 34.6789 42.396C35.5375 41.4584 36.2244 40.3717 36.6966 39.1714C38.3779 39.9669 40.231 40.393 42.1127 40.393H63.5339C64.2065 40.393 64.7502 39.8532 64.7502 39.1856V17.9201C64.7502 11.0305 59.098 5.41935 52.1579 5.41935H42.1198C35.1798 5.41935 29.5275 11.0305 29.5275 17.9201V32.6511C29.5275 35.5916 27.1164 37.9781 24.1615 37.9781H12.0486C11.5549 36.7067 10.3171 35.7976 8.8647 35.7976C6.98301 35.7976 5.4519 37.3175 5.4519 39.1856C5.4519 41.0536 6.98301 42.5735 8.8647 42.5735C10.3171 42.5735 11.5549 41.6644 12.0486 40.393H24.1615C28.4615 40.393 31.9601 36.9198 31.9601 32.6511V17.9201C31.9601 12.3587 36.5177 7.83427 42.1198 7.83427H52.1579C57.7601 7.83427 62.3176 12.3587 62.3176 17.9201V37.9781H42.1127C40.4313 37.9781 38.7857 37.5661 37.319 36.7848C37.3834 36.3232 37.4192 35.8615 37.4192 35.3856V32.0118C39.1006 33.8301 41.5188 34.9737 44.1947 34.9737H58.0677C58.7403 34.9737 59.284 34.4339 59.284 33.7662V19.9941C59.284 14.9583 55.1558 10.8529 50.083 10.8529H44.1947C39.122 10.8529 34.9937 14.9512 34.9937 19.9941V35.3927C34.9937 39.8177 31.3663 43.4188 26.9089 43.4188H6.59665C6.10298 42.1474 4.86521 41.2382 3.4128 41.2382C1.53111 41.2382 0 42.7582 0 44.6262C0 46.4942 1.53111 48.0142 3.4128 48.0142C4.86521 48.0142 6.10298 47.1051 6.59665 45.8337H26.9018C29.0196 45.8337 30.9943 45.2086 32.647 44.129C34.8507 45.2442 37.2976 45.8337 39.7874 45.8337H68.993C69.6655 45.8337 70.2093 45.2939 70.2093 44.6262V15.6188C70.2093 7.00325 63.1476 0 54.4761 0H54.4689ZM14.3166 34.7393C13.7728 34.7393 13.3364 34.2989 13.3364 33.7662C13.3364 33.2335 13.78 32.7931 14.3166 32.7931C14.8532 32.7931 15.2968 33.2335 15.2968 33.7662C15.2968 34.2989 14.8532 34.7393 14.3166 34.7393ZM8.85039 40.1657C8.30663 40.1657 7.87019 39.7254 7.87019 39.1927C7.87019 38.66 8.31379 38.2196 8.85039 38.2196C9.38699 38.2196 9.83059 38.66 9.83059 39.1927C9.83059 39.7254 9.38699 40.1657 8.85039 40.1657ZM37.412 19.9941C37.412 16.2865 40.4528 13.2678 44.1876 13.2678H50.0759C53.8107 13.2678 56.8514 16.2865 56.8514 19.9941V32.5587H44.1947C40.4599 32.5587 37.4192 29.5401 37.4192 25.8325V19.9941H37.412ZM3.4128 45.5922C2.86904 45.5922 2.43261 45.1518 2.43261 44.6191C2.43261 44.0864 2.8762 43.646 3.4128 43.646C3.94941 43.646 4.393 44.0864 4.393 44.6191C4.393 45.1518 3.94941 45.5922 3.4128 45.5922Z" fill="url(#paint0_radial_10_6472)"/>
<path style="mix-blend-mode:multiply" opacity="0.75" d="M44.1876 32.5588H48.3444C48.0726 33.3756 47.7649 34.1782 47.4358 34.9737H44.1876C41.5117 34.9737 39.0934 33.8302 37.412 32.0119V25.8325C37.412 29.5401 40.4528 32.5588 44.1876 32.5588ZM37.3119 36.792C37.1974 37.623 36.9899 38.4185 36.6894 39.1785C38.3708 39.974 40.2238 40.4001 42.1055 40.4001H44.7671C45.1964 39.5975 45.6256 38.7949 46.0335 37.9852H42.1055C40.4242 37.9852 38.7786 37.5733 37.3119 36.792ZM34.6718 42.4031C34.0708 43.0566 33.3911 43.6319 32.6398 44.122C34.8435 45.2371 37.2904 45.8266 39.7802 45.8266H41.848C42.2629 45.0169 42.6851 44.2143 43.1215 43.4117H39.7802C38.0202 43.4117 36.2816 43.0637 34.6718 42.4031Z" fill="url(#paint1_linear_10_6472)"/>
</g>
<defs>
<radialGradient id="paint0_radial_10_6472" cx="0" cy="0" r="1" gradientUnits="userSpaceOnUse" gradientTransform="translate(59.3842 7.04587) scale(47.1496 46.8067)">
<stop stop-color="#E80054"/>
<stop offset="1" stop-color="#480A86"/>
</radialGradient>
<linearGradient id="paint1_linear_10_6472" x1="36.3317" y1="35.5206" x2="44.601" y2="38.7432" gradientUnits="userSpaceOnUse">
<stop stop-color="#231F20"/>
<stop offset="0.99" stop-color="#231F20" stop-opacity="0"/>
</linearGradient>
<clipPath id="clip0_10_6472">
<rect width="168" height="48" fill="white"/>
</clipPath>
</defs>
</svg>
