<svg width="106" height="54" viewBox="0 0 106 54" fill="none" xmlns="http://www.w3.org/2000/svg">
<path d="M17.672 13V3.438H21.27C22.0634 3.438 22.7214 3.55 23.244 3.774C23.7667 3.98867 24.1587 4.33867 24.42 4.824C24.6907 5.30933 24.826 5.958 24.826 6.77C24.826 7.582 24.6907 8.24467 24.42 8.758C24.1587 9.262 23.7667 9.63533 23.244 9.878C22.7214 10.1113 22.0634 10.228 21.27 10.228H19.604V13H17.672ZM19.604 8.646H21.214C21.802 8.646 22.222 8.492 22.474 8.184C22.726 7.86667 22.852 7.4 22.852 6.784C22.852 6.14933 22.726 5.69667 22.474 5.426C22.222 5.15533 21.802 5.02 21.214 5.02H19.604V8.646ZM28.8419 13.154C28.0485 13.154 27.4092 13.0233 26.9239 12.762C26.4479 12.5007 26.1025 12.0993 25.8879 11.558C25.6732 11.0073 25.5659 10.298 25.5659 9.43C25.5659 8.59 25.6779 7.90867 25.9019 7.386C26.1259 6.854 26.4805 6.462 26.9659 6.21C27.4512 5.94867 28.0765 5.818 28.8419 5.818C29.6165 5.818 30.2419 5.94867 30.7179 6.21C31.2032 6.462 31.5579 6.854 31.7819 7.386C32.0152 7.90867 32.1319 8.59 32.1319 9.43C32.1319 10.298 32.0245 11.0073 31.8099 11.558C31.5952 12.0993 31.2452 12.5007 30.7599 12.762C30.2839 13.0233 29.6445 13.154 28.8419 13.154ZM28.8419 11.614C29.2339 11.614 29.5279 11.544 29.7239 11.404C29.9199 11.2547 30.0505 11.0213 30.1159 10.704C30.1905 10.3773 30.2279 9.95267 30.2279 9.43C30.2279 8.91667 30.1859 8.51067 30.1019 8.212C30.0179 7.904 29.8779 7.68467 29.6819 7.554C29.4859 7.42333 29.2059 7.358 28.8419 7.358C28.4872 7.358 28.2072 7.42333 28.0019 7.554C27.8059 7.68467 27.6659 7.904 27.5819 8.212C27.4979 8.51067 27.4559 8.91667 27.4559 9.43C27.4559 9.95267 27.4885 10.3773 27.5539 10.704C27.6285 11.0213 27.7639 11.2547 27.9599 11.404C28.1559 11.544 28.4499 11.614 28.8419 11.614ZM34.2197 13L32.8757 5.972H34.8637L35.7737 11.418H35.9837L37.1177 6.126H38.9097L40.0857 11.418H40.2957L41.2057 5.972H43.0677L41.7657 13H38.9517L37.9577 8.478L36.9637 13H34.2197ZM46.9391 13.154C46.1645 13.154 45.5485 13.0233 45.0911 12.762C44.6431 12.5007 44.3211 12.104 44.1251 11.572C43.9291 11.04 43.8311 10.3727 43.8311 9.57C43.8311 8.702 43.9525 7.99267 44.1951 7.442C44.4471 6.89133 44.8111 6.48533 45.2871 6.224C45.7631 5.95333 46.3511 5.818 47.0511 5.818C48.0871 5.818 48.8665 6.07933 49.3891 6.602C49.9211 7.12467 50.1871 7.95067 50.1871 9.08L50.1031 10.116H45.7071C45.7165 10.6387 45.8238 11.0307 46.0291 11.292C46.2345 11.5533 46.5891 11.684 47.0931 11.684C47.3825 11.684 47.6998 11.6793 48.0451 11.67C48.3905 11.6513 48.7311 11.6327 49.0671 11.614C49.4125 11.5953 49.7065 11.5767 49.9491 11.558L49.9911 12.86C49.7578 12.8973 49.4638 12.9393 49.1091 12.986C48.7545 13.0327 48.3858 13.07 48.0031 13.098C47.6298 13.1353 47.2751 13.154 46.9391 13.154ZM45.7071 8.926H48.3251C48.3251 8.29133 48.2225 7.848 48.0171 7.596C47.8211 7.344 47.4991 7.218 47.0511 7.218C46.6125 7.218 46.2765 7.34867 46.0431 7.61C45.8191 7.87133 45.7071 8.31 45.7071 8.926ZM51.4253 13V5.972H53.2873V6.798C53.4459 6.67667 53.6419 6.55067 53.8753 6.42C54.1086 6.28 54.3606 6.154 54.6313 6.042C54.9113 5.92067 55.1773 5.84133 55.4293 5.804V7.61C55.1866 7.64733 54.9299 7.71267 54.6593 7.806C54.3886 7.89 54.1319 7.98333 53.8893 8.086C53.6559 8.18867 53.4553 8.282 53.2873 8.366V13H51.4253ZM59.1618 13.154C58.3871 13.154 57.7711 13.0233 57.3138 12.762C56.8658 12.5007 56.5438 12.104 56.3478 11.572C56.1518 11.04 56.0538 10.3727 56.0538 9.57C56.0538 8.702 56.1751 7.99267 56.4178 7.442C56.6698 6.89133 57.0338 6.48533 57.5098 6.224C57.9858 5.95333 58.5738 5.818 59.2738 5.818C60.3098 5.818 61.0891 6.07933 61.6118 6.602C62.1438 7.12467 62.4098 7.95067 62.4098 9.08L62.3258 10.116H57.9298C57.9391 10.6387 58.0465 11.0307 58.2518 11.292C58.4571 11.5533 58.8118 11.684 59.3158 11.684C59.6051 11.684 59.9225 11.6793 60.2678 11.67C60.6131 11.6513 60.9538 11.6327 61.2898 11.614C61.6351 11.5953 61.9291 11.5767 62.1718 11.558L62.2138 12.86C61.9805 12.8973 61.6865 12.9393 61.3318 12.986C60.9771 13.0327 60.6085 13.07 60.2258 13.098C59.8525 13.1353 59.4978 13.154 59.1618 13.154ZM57.9298 8.926H60.5478C60.5478 8.29133 60.4451 7.848 60.2398 7.596C60.0438 7.344 59.7218 7.218 59.2738 7.218C58.8351 7.218 58.4991 7.34867 58.2658 7.61C58.0418 7.87133 57.9298 8.31 57.9298 8.926ZM66.0139 13.154C65.6779 13.154 65.3699 13.112 65.0899 13.028C64.8099 12.9533 64.5626 12.832 64.3479 12.664C64.1426 12.4867 63.9653 12.258 63.8159 11.978C63.6759 11.698 63.5686 11.3573 63.4939 10.956C63.4193 10.5453 63.3819 10.0693 63.3819 9.528C63.3819 8.72533 63.4799 8.04867 63.6759 7.498C63.8813 6.94733 64.2033 6.532 64.6419 6.252C65.0806 5.96267 65.6639 5.818 66.3919 5.818C66.6066 5.818 66.8586 5.83667 67.1479 5.874C67.4466 5.902 67.6846 5.93 67.8619 5.958V3.102H69.7379V13H67.8899L67.8759 12.594C67.7453 12.6687 67.5726 12.7527 67.3579 12.846C67.1526 12.93 66.9333 13 66.6999 13.056C66.4666 13.1213 66.2379 13.154 66.0139 13.154ZM66.4899 11.586C66.6579 11.586 66.8259 11.5673 66.9939 11.53C67.1713 11.4927 67.3346 11.4507 67.4839 11.404C67.6426 11.348 67.7686 11.2967 67.8619 11.25V7.484C67.7779 7.46533 67.6659 7.45133 67.5259 7.442C67.3859 7.42333 67.2413 7.40933 67.0919 7.4C66.9426 7.38133 66.8073 7.372 66.6859 7.372C66.3219 7.372 66.0373 7.456 65.8319 7.624C65.6359 7.792 65.4959 8.03933 65.4119 8.366C65.3279 8.68333 65.2859 9.07067 65.2859 9.528C65.2859 9.92933 65.3139 10.2653 65.3699 10.536C65.4259 10.7973 65.5053 11.0073 65.6079 11.166C65.7199 11.3153 65.8506 11.4227 65.9999 11.488C66.1493 11.5533 66.3126 11.586 66.4899 11.586ZM74.4377 13V3.438H78.2457C78.8803 3.438 79.4263 3.51733 79.8837 3.676C80.341 3.83467 80.6957 4.09133 80.9477 4.446C81.209 4.79133 81.3397 5.258 81.3397 5.846C81.3397 6.24733 81.2977 6.588 81.2137 6.868C81.139 7.13867 81.0177 7.372 80.8497 7.568C80.691 7.75467 80.481 7.92733 80.2197 8.086C80.4997 8.18867 80.7423 8.32867 80.9477 8.506C81.1623 8.674 81.3257 8.90267 81.4377 9.192C81.5497 9.472 81.6057 9.84533 81.6057 10.312C81.6057 10.8253 81.5263 11.2547 81.3677 11.6C81.209 11.9453 80.9803 12.2207 80.6817 12.426C80.3923 12.6313 80.0517 12.7807 79.6597 12.874C79.2677 12.958 78.8383 13 78.3717 13H74.4377ZM76.3697 11.572H78.2317C78.5583 11.572 78.829 11.5347 79.0437 11.46C79.2677 11.376 79.4357 11.2313 79.5477 11.026C79.669 10.8207 79.7297 10.536 79.7297 10.172C79.7297 9.892 79.683 9.66333 79.5897 9.486C79.4963 9.30867 79.375 9.178 79.2257 9.094C79.0763 9.00067 78.9083 8.93533 78.7217 8.898C78.5443 8.86067 78.367 8.842 78.1897 8.842H76.3697V11.572ZM76.3697 7.47H78.1757C78.6517 7.47 78.9923 7.358 79.1977 7.134C79.4123 6.91 79.5197 6.56933 79.5197 6.112C79.5197 5.67333 79.403 5.356 79.1697 5.16C78.9457 4.964 78.591 4.866 78.1057 4.866H76.3697V7.47ZM84.5926 15.954L85.4886 13H83.9906L82.3246 5.972H84.2706L85.5166 11.418H85.8806L87.1266 5.972H89.0026L86.5806 15.954H84.5926Z" fill="black"/>
<g clip-path="url(#clip0_201_26073)">
<path d="M49.5858 30.4368H54.7954L56.7271 36.443C57.0849 37.5262 57.2637 38.5739 57.2637 38.5739H57.3174C57.3174 38.5739 57.5142 37.5262 57.854 36.4253L59.7321 30.4368H64.9417V44.034H61.3777V33.9571H61.324C61.324 33.9571 60.9663 35.5019 60.4476 37.2288L58.3727 44.034H55.8462L53.6998 37.2288C53.1453 35.4886 52.8591 33.9749 52.8591 33.9749H52.8055V44.034H49.5814V30.4368H49.5858Z" fill="#480A86"/>
<path d="M67.1641 30.4368H76.3311V33.0693H70.7996V36.0036H76.1522V38.565H70.7996V41.446H76.5279V44.0429H67.1641V30.4368Z" fill="#480A86"/>
<path d="M78.4999 30.4368H87.6669V33.0693H82.1354V36.0036H87.488V38.565H82.1354V41.446H87.8636V44.0429H78.4999V30.4368Z" fill="#480A86"/>
<path d="M89.8312 30.4368H95.0407L96.9725 36.443C97.3302 37.5262 97.5091 38.5739 97.5091 38.5739H97.5627C97.5627 38.5739 97.7595 37.5262 98.0993 36.4253L99.9775 30.4368H105.187V44.034H101.623V33.9571H101.569C101.569 33.9571 101.212 35.5019 100.693 37.2288L98.6181 44.034H96.0915L93.9451 37.2288C93.3906 35.4886 93.1044 33.9749 93.1044 33.9749H93.0508V44.034H89.8267V30.4368H89.8312Z" fill="#480A86"/>
<path d="M49.2192 47.1326H50.905C52.403 47.1326 53.5567 47.8562 53.5567 49.7872C53.5567 51.7182 52.4835 52.575 50.9855 52.575H49.2236V47.1326H49.2192ZM50.905 52.0068C52.0677 52.0068 52.8591 51.4075 52.8591 49.8094C52.8591 48.2113 52.0498 47.7052 50.9453 47.7052H49.8855V52.0068H50.905Z" fill="#480A86"/>
<path d="M54.782 47.1326H58.2833V47.723H55.4483V49.5386H58.0553V50.1157H55.4483V51.9846H58.3191V52.575H54.7775V47.1326H54.782Z" fill="#480A86"/>
<path d="M59.1016 47.1326H59.8126L61.2257 51.1367C61.4135 51.6916 61.4627 51.9846 61.4627 51.9846H61.4761C61.4761 51.9846 61.5342 51.6916 61.7176 51.1545L63.1217 47.137H63.7969L61.8472 52.5794H61.0736L59.1016 47.137V47.1326Z" fill="#480A86"/>
<path d="M64.8299 47.1326H68.3313V47.723H65.4962V49.5386H68.1032V50.1157H65.4962V51.9846H68.367V52.575H64.8254V47.1326H64.8299Z" fill="#480A86"/>
<path d="M69.6817 47.1326H70.348V51.9846H73.0712V52.575H69.6817V47.1326Z" fill="#480A86"/>
<path d="M76.0181 47.0571C77.3506 47.0571 78.4909 47.9228 78.4909 49.8716C78.4909 51.8204 77.3596 52.686 76.0181 52.686C74.6766 52.686 73.5676 51.8115 73.5676 49.8716C73.5676 47.9316 74.7123 47.0571 76.0181 47.0571ZM77.7889 49.8804C77.7889 48.3889 77.0734 47.5854 76.0181 47.5854C74.9627 47.5854 74.2696 48.3445 74.2696 49.8804C74.2696 51.4164 74.9717 52.1578 76.0181 52.1578C77.0644 52.1578 77.7889 51.3454 77.7889 49.8804Z" fill="#480A86"/>
<path d="M80.3914 50.4975V52.575H79.7251V47.1326H81.3752C82.4349 47.1326 83.2577 47.6298 83.2577 48.8061C83.2577 49.9825 82.4394 50.4975 81.317 50.4975H80.3914ZM81.317 49.9648C82.113 49.9648 82.5691 49.5786 82.5691 48.8061C82.5691 48.0337 82.1085 47.6697 81.3349 47.6697H80.3869V49.9692H81.3126L81.317 49.9648Z" fill="#480A86"/>
<path d="M84.3042 47.1326H85.3148L86.7055 51.0302C86.8754 51.5052 86.9469 51.7404 86.9469 51.7404H86.9603C86.9603 51.7404 87.0319 51.5052 87.2018 51.0302L88.6149 47.1326H89.6165V52.575H88.9368V47.9005H88.9145C88.9145 47.9005 88.8295 48.1758 88.6193 48.7529L87.2376 52.5706H86.6071L85.2611 48.7529C85.0688 48.1847 84.966 47.9005 84.966 47.9005H84.9436V52.575H84.2997V47.1326H84.3042Z" fill="#480A86"/>
<path d="M91.1235 47.1326H94.6248V47.723H91.7898V49.5386H94.3968V50.1157H91.7898V51.9846H94.6606V52.575H91.119V47.1326H91.1235Z" fill="#480A86"/>
<path d="M95.9753 47.1326H96.8294L99.2665 51.1811C99.4543 51.4785 99.5437 51.7138 99.5437 51.7138H99.5661V47.1326H100.197V52.575H99.3425L96.9143 48.5354C96.6997 48.1802 96.6282 48.0071 96.6282 48.0071H96.6147V52.575H95.9753V47.1326Z" fill="#480A86"/>
<path d="M105.5 47.7097H103.6V52.575H102.933V47.7097H101.033V47.1326H105.496V47.7097H105.5Z" fill="#480A86"/>
<path d="M34.5431 24H25.3627C19.9385 24 15.5294 28.3815 15.5294 33.7618V42.2584C15.5294 43.4081 14.5859 44.3448 13.4232 44.3448H11.4378C11.1292 43.5502 10.3556 42.9819 9.44787 42.9819C8.27182 42.9819 7.31487 43.9319 7.31487 45.0994C7.31487 46.2669 8.27182 47.2169 9.44787 47.2169C10.3556 47.2169 11.1292 46.6487 11.4378 45.8541H13.4232C15.4221 45.8541 17.0453 44.2427 17.0453 42.2584V33.7618C17.0453 29.2072 20.7747 25.5049 25.3627 25.5049H34.5431C39.131 25.5049 42.8604 29.2072 42.8604 33.7618V51.1278H25.3671C24.2671 51.1278 23.1805 50.9103 22.1743 50.4975C22.7109 49.9115 23.1402 49.2323 23.4354 48.4821C24.4862 48.9793 25.6444 49.2456 26.8204 49.2456H40.2087C40.629 49.2456 40.9689 48.9083 40.9689 48.491V35.2001C40.9689 30.8941 37.4362 27.3871 33.0987 27.3871H26.8249C22.4874 27.3871 18.9547 30.8941 18.9547 35.2001V44.4069C18.9547 46.2447 17.4477 47.7363 15.6009 47.7363H8.03034C7.7218 46.9417 6.94819 46.3735 6.04044 46.3735C4.86438 46.3735 3.90744 47.3235 3.90744 48.491C3.90744 49.6585 4.86438 50.6085 6.04044 50.6085C6.94819 50.6085 7.7218 50.0402 8.03034 49.2456H15.6009C18.2884 49.2456 20.4751 47.0749 20.4751 44.4069V35.2001C20.4751 31.7242 23.3236 28.8964 26.8249 28.8964H33.0987C36.6 28.8964 39.4485 31.7242 39.4485 35.2001V47.7363H26.8204C25.7696 47.7363 24.7411 47.4788 23.8244 46.9905C23.8646 46.702 23.887 46.4134 23.887 46.116V44.0074C24.9378 45.1438 26.4493 45.8585 28.1217 45.8585H36.7923C37.2127 45.8585 37.5525 45.5212 37.5525 45.1039V36.4963C37.5525 33.3489 34.9723 30.7831 31.8019 30.7831H28.1217C24.9513 30.7831 22.3711 33.3445 22.3711 36.4963V46.1205C22.3711 48.8861 20.1039 51.1367 17.3181 51.1367H4.62291C4.31436 50.3421 3.54076 49.7739 2.633 49.7739C1.45694 49.7739 0.5 50.7239 0.5 51.8914C0.5 53.0589 1.45694 54.0089 2.633 54.0089C3.54076 54.0089 4.31436 53.4407 4.62291 52.646H17.3136C18.6372 52.646 19.8714 52.2554 20.9044 51.5806C22.2817 52.2776 23.811 52.646 25.3671 52.646H43.6206C44.041 52.646 44.3808 52.3087 44.3808 51.8914V33.7618C44.3808 28.377 39.9672 24 34.5475 24H34.5431ZM9.44787 45.712C9.10802 45.712 8.83525 45.4368 8.83525 45.1039C8.83525 44.7709 9.1125 44.4957 9.44787 44.4957C9.78325 44.4957 10.0605 44.7709 10.0605 45.1039C10.0605 45.4368 9.78325 45.712 9.44787 45.712ZM6.03149 49.1036C5.69164 49.1036 5.41887 48.8284 5.41887 48.4954C5.41887 48.1625 5.69612 47.8872 6.03149 47.8872C6.36687 47.8872 6.64412 48.1625 6.64412 48.4954C6.64412 48.8284 6.36687 49.1036 6.03149 49.1036ZM23.8825 36.4963C23.8825 34.179 25.783 32.2924 28.1172 32.2924H31.7974C34.1317 32.2924 36.0321 34.179 36.0321 36.4963V44.3492H28.1217C25.7875 44.3492 23.887 42.4626 23.887 40.1453V36.4963H23.8825ZM2.633 52.4951C2.29315 52.4951 2.02038 52.2199 2.02038 51.8869C2.02038 51.554 2.29762 51.2788 2.633 51.2788C2.96838 51.2788 3.24562 51.554 3.24562 51.8869C3.24562 52.2199 2.96838 52.4951 2.633 52.4951Z" fill="url(#paint0_radial_201_26073)"/>
<path style="mix-blend-mode:multiply" opacity="0.75" d="M28.1172 44.3492H30.7153C30.5454 44.8597 30.3531 45.3614 30.1474 45.8586H28.1172C26.4448 45.8586 24.9334 45.1438 23.8825 44.0074V40.1453C23.8825 42.4626 25.783 44.3492 28.1172 44.3492ZM23.8199 46.995C23.7484 47.5144 23.6187 48.0116 23.4309 48.4866C24.4817 48.9837 25.6399 49.2501 26.816 49.2501H28.4794C28.7477 48.7485 29.016 48.2468 29.2709 47.7408H26.816C25.7651 47.7408 24.7366 47.4833 23.8199 46.995ZM22.1699 50.5019C21.7942 50.9103 21.3694 51.2699 20.8999 51.5762C22.2772 52.2732 23.8065 52.6416 25.3627 52.6416H26.655C26.9143 52.1356 27.1782 51.6339 27.4509 51.1323H25.3627C24.2626 51.1323 23.176 50.9148 22.1699 50.5019Z" fill="url(#paint1_linear_201_26073)"/>
</g>
<defs>
<radialGradient id="paint0_radial_201_26073" cx="0" cy="0" r="1" gradientUnits="userSpaceOnUse" gradientTransform="translate(37.6151 28.4037) scale(29.4685 29.2542)">
<stop stop-color="#E80054"/>
<stop offset="1" stop-color="#480A86"/>
</radialGradient>
<linearGradient id="paint1_linear_201_26073" x1="23.2073" y1="46.2004" x2="28.3756" y2="48.2145" gradientUnits="userSpaceOnUse">
<stop stop-color="#231F20"/>
<stop offset="0.99" stop-color="#231F20" stop-opacity="0"/>
</linearGradient>
<clipPath id="clip0_201_26073">
<rect width="105" height="30" fill="white" transform="translate(0.5 24)"/>
</clipPath>
</defs>
</svg>
