<svg width="152" height="152" viewBox="0 0 152 152" fill="none" xmlns="http://www.w3.org/2000/svg">
<path d="M147 0.5H5C2.51472 0.5 0.5 2.51472 0.5 5V147C0.5 149.485 2.51472 151.5 5 151.5H147C149.485 151.5 151.5 149.485 151.5 147V5C151.5 2.51472 149.485 0.5 147 0.5Z" stroke="#E2E1E3"/>
<g clip-path="url(#clip0_232_25944)">
<path d="M89.8825 28H75.469C66.954 28 60.032 35.0674 60.032 43.7531V57.4571C60.032 59.317 58.5478 60.8244 56.7309 60.8244H53.609C53.1292 59.5388 51.9137 58.6252 50.487 58.6252C48.6446 58.6252 47.1412 60.1588 47.1412 62.0382C47.1412 63.9176 48.6446 65.4512 50.487 65.4512C51.9137 65.4512 53.1292 64.5376 53.609 63.252H56.7309C59.8657 63.252 62.4183 60.6482 62.4183 57.4506V43.7466C62.4183 36.4051 68.2783 30.4276 75.4754 30.4276H89.8889C97.086 30.4276 102.946 36.4051 102.946 43.7466V71.7615H75.4818C73.7545 71.7615 72.0464 71.4092 70.4662 70.7435C71.3043 69.7973 71.9824 68.701 72.443 67.4937C74.0936 68.2964 75.9105 68.7271 77.7593 68.7271H98.7749C99.4338 68.7271 99.9648 68.1854 99.9648 67.5133V46.0763C99.9648 39.1264 94.4247 33.4751 87.6114 33.4751H77.7593C70.946 33.4751 65.4059 39.1264 65.4059 46.0763V60.9288C65.4059 63.8915 63.0452 66.2995 60.1408 66.2995H48.2543C47.7745 65.0139 46.559 64.1003 45.1324 64.1003C43.2899 64.1003 41.7865 65.6339 41.7865 67.5133C41.7865 69.3927 43.2899 70.9262 45.1324 70.9262C46.559 70.9262 47.7745 70.0126 48.2543 68.7271H60.1408C64.3567 68.7271 67.7921 65.2293 67.7921 60.9223V46.0697C67.7921 40.4641 72.2639 35.8961 77.7657 35.8961H87.6178C93.1132 35.8961 97.5914 40.4576 97.5914 46.0697V66.293H77.7657C76.1152 66.293 74.503 65.8753 73.0636 65.0857C73.1276 64.6224 73.1596 64.1525 73.1596 63.6696V60.2632C74.8101 62.0969 77.1772 63.2455 79.8065 63.2455H93.4203C94.0792 63.2455 94.6102 62.7038 94.6102 62.0317V48.1449C94.6102 43.0679 90.5606 38.9306 85.577 38.9306H79.8001C74.8229 38.9306 70.7669 43.0614 70.7669 48.1449V63.6696C70.7669 68.1332 67.2099 71.7615 62.8341 71.7615H42.9125C42.4326 70.476 41.2171 69.5624 39.7905 69.5624C37.948 69.5624 36.4446 71.0959 36.4446 72.9753C36.4446 74.8547 37.948 76.3883 39.7905 76.3883C41.2171 76.3883 42.4326 75.4747 42.9125 74.1891H62.8341C64.9133 74.1891 66.8517 73.5561 68.4702 72.4728C70.6326 73.5953 73.0316 74.1891 75.4754 74.1891H104.136C104.795 74.1891 105.326 73.6475 105.326 72.9753V43.7531C105.326 35.0674 98.3975 28 89.8889 28H89.8825ZM50.487 63.0236C49.956 63.0236 49.5274 62.5864 49.5274 62.0447C49.5274 61.5031 49.956 61.0659 50.487 61.0659C51.018 61.0659 51.4466 61.5031 51.4466 62.0447C51.4466 62.5864 51.018 63.0236 50.487 63.0236ZM45.1196 68.4921C44.5886 68.4921 44.16 68.0549 44.16 67.5133C44.16 66.9717 44.5886 66.5344 45.1196 66.5344C45.6506 66.5344 46.0792 66.9717 46.0792 67.5133C46.0792 68.0549 45.6506 68.4921 45.1196 68.4921ZM73.1404 48.1515C73.1404 44.4122 76.1216 41.3712 79.7873 41.3712H85.5642C89.2299 41.3712 92.2111 44.4122 92.2111 48.1515V60.8244H79.7873C76.1216 60.8244 73.1404 57.7834 73.1404 54.0442V48.158V48.1515ZM39.7777 73.9607C39.2467 73.9607 38.8181 73.5235 38.8181 72.9819C38.8181 72.4402 39.2467 72.003 39.7777 72.003C40.3087 72.003 40.7373 72.4402 40.7373 72.9819C40.7373 73.5235 40.3087 73.9607 39.7777 73.9607Z" fill="url(#paint0_radial_232_25944)"/>
<path style="mix-blend-mode:multiply" opacity="0.75" d="M79.7937 60.8244H83.8753C83.6066 61.6467 83.3059 62.4559 82.9796 63.2585H79.7937C77.1643 63.2585 74.7973 62.11 73.1468 60.2763V54.0507C73.1468 57.79 76.128 60.831 79.7937 60.831V60.8244ZM73.0508 65.0923C72.942 65.9275 72.7309 66.7367 72.443 67.5002C74.0936 68.3029 75.9104 68.7336 77.7593 68.7336H80.3695C80.7917 67.9244 81.2075 67.1152 81.6106 66.2995H77.7593C76.1088 66.2995 74.4966 65.8819 73.0572 65.0923H73.0508ZM70.4662 70.7501C69.8777 71.4092 69.2059 71.99 68.4766 72.4794C70.639 73.6018 73.038 74.1956 75.4818 74.1956H77.5098C77.9128 73.3799 78.3351 72.5707 78.7573 71.7615H75.4754C73.7481 71.7615 72.04 71.4092 70.4598 70.7435L70.4662 70.7501Z" fill="url(#paint1_linear_232_25944)"/>
<path d="M28.6205 84.9957H37.5066L40.8077 95.5283C41.4154 97.4272 41.7225 99.2675 41.7225 99.2675H41.8121C41.8121 99.2675 42.1511 97.4272 42.7269 95.4956L45.932 84.9957H54.8181V108.828H48.7405V91.1625H48.6509C48.6509 91.1625 48.0432 93.8707 47.1539 96.8987L43.6097 108.834H39.3043L35.6385 96.8987C34.6917 93.8446 34.2055 91.1952 34.2055 91.1952H34.1159V108.828H28.6205V84.9957Z" fill="#480A86"/>
<path d="M58.6118 84.9957H74.2535V89.6094H64.8173V94.7517H73.9528V99.2414H64.8173V104.286H74.5926V108.834H58.6182V85.0023L58.6118 84.9957Z" fill="#480A86"/>
<path d="M77.9448 84.9957H93.5866V89.6094H84.1503V94.7517H93.2859V99.2414H84.1503V104.286H93.9256V108.834H77.9512V85.0023L77.9448 84.9957Z" fill="#480A86"/>
<path d="M97.2779 84.9957H106.164L109.465 95.5283C110.073 97.4272 110.38 99.2675 110.38 99.2675H110.469C110.469 99.2675 110.808 97.4272 111.384 95.4956L114.589 84.9957H123.475V108.828H117.398V91.1625H117.308C117.308 91.1625 116.701 93.8707 115.811 96.8987L112.267 108.834H107.962L104.296 96.8987C103.349 93.8446 102.863 91.1952 102.863 91.1952H102.773V108.828H97.2779V84.9957Z" fill="#480A86"/>
<path d="M28 114.264H30.8725C33.425 114.264 35.3954 115.536 35.3954 118.916C35.3954 122.297 33.5594 123.804 31.0068 123.804H28V114.27V114.264ZM30.8725 122.806C32.8493 122.806 34.2055 121.762 34.2055 118.956C34.2055 116.15 32.8237 115.269 30.9428 115.269H29.1387V122.812H30.8725V122.806Z" fill="#480A86"/>
<path d="M37.4874 114.264H43.4626V115.301H38.6198V118.479H43.066V119.491H38.6198V122.767H43.5202V123.804H37.481V114.27L37.4874 114.264Z" fill="#480A86"/>
<path d="M44.8572 114.264H46.0664L48.4718 121.285C48.7917 122.258 48.8748 122.767 48.8748 122.767H48.9004C48.9004 122.767 48.9964 122.258 49.3163 121.305L51.7089 114.264H52.8604L49.5338 123.798H48.2159L44.8572 114.264Z" fill="#480A86"/>
<path d="M54.6261 114.264H60.6014V115.301H55.7585V118.479H60.2047V119.491H55.7585V122.767H60.6589V123.804H54.6198V114.27L54.6261 114.264Z" fill="#480A86"/>
<path d="M62.9044 114.264H64.0432V122.767H68.6877V123.804H62.9044V114.27V114.264Z" fill="#480A86"/>
<path d="M73.7161 114.127C75.9872 114.127 77.932 115.647 77.932 119.06C77.932 122.473 76 124 73.7161 124C71.4322 124 69.5386 122.466 69.5386 119.06C69.5386 115.654 71.4962 114.127 73.7161 114.127ZM76.7357 119.073C76.7357 116.456 75.5138 115.047 73.7161 115.047C71.9184 115.047 70.7349 116.378 70.7349 119.073C70.7349 121.768 71.9312 123.06 73.7161 123.06C75.501 123.06 76.7357 121.638 76.7357 119.073Z" fill="#480A86"/>
<path d="M81.1691 120.156V123.798H80.0304V114.264H82.8389C84.6493 114.264 86.0504 115.138 86.0504 117.194C86.0504 119.249 84.6557 120.163 82.7365 120.163H81.1627L81.1691 120.156ZM82.7429 119.223C84.0992 119.223 84.8797 118.551 84.8797 117.194C84.8797 115.836 84.0992 115.197 82.7749 115.197H81.1627V119.223H82.7365H82.7429Z" fill="#480A86"/>
<path d="M87.8481 114.264H89.569L91.9424 121.096C92.2367 121.931 92.3583 122.342 92.3583 122.342H92.3839C92.3839 122.342 92.5054 121.931 92.7997 121.096L95.2051 114.264H96.9132V123.798H95.7489V115.608H95.7105C95.7105 115.608 95.5634 116.097 95.2115 117.102L92.8509 123.798H91.7761L89.4794 117.102C89.1468 116.104 88.9804 115.608 88.9804 115.608H88.942V123.798H87.8417V114.264H87.8481Z" fill="#480A86"/>
<path d="M99.4722 114.264H105.447V115.301H100.605V118.479H105.051V119.491H100.605V122.767H105.505V123.804H99.4658V114.27L99.4722 114.264Z" fill="#480A86"/>
<path d="M107.75 114.264H109.203L113.361 121.357C113.681 121.879 113.841 122.29 113.841 122.29H113.879V114.264H114.954V123.798H113.502L109.356 116.717C108.992 116.091 108.87 115.797 108.87 115.797H108.844V123.798H107.757V114.264H107.75Z" fill="#480A86"/>
<path d="M124 115.275H120.763V123.804H119.624V115.275H116.387V114.264H124V115.275Z" fill="#480A86"/>
</g>
<defs>
<radialGradient id="paint0_radial_232_25944" cx="0" cy="0" r="1" gradientUnits="userSpaceOnUse" gradientTransform="translate(94.7061 35.1065) scale(46.2599 47.1876)">
<stop stop-color="#E80054"/>
<stop offset="1" stop-color="#480A86"/>
</radialGradient>
<linearGradient id="paint1_linear_232_25944" x1="72.0912" y1="63.8132" x2="80.2574" y2="66.9146" gradientUnits="userSpaceOnUse">
<stop stop-color="#231F20"/>
<stop offset="0.99" stop-color="#231F20" stop-opacity="0"/>
</linearGradient>
<clipPath id="clip0_232_25944">
<rect width="96" height="96" fill="white" transform="translate(28 28)"/>
</clipPath>
</defs>
</svg>
